<?xml version="1.0" encoding="UTF-8" standalone="no"?>
<!DOCTYPE svg PUBLIC "-//W3C//DTD SVG 1.1//EN"
 "http://www.w3.org/Graphics/SVG/1.1/DTD/svg11.dtd">
<!-- Generated by graphviz version 2.40.1 (20161225.0304)
 -->
<!-- Title: G Pages: 1 -->
<svg width="737pt" height="638pt"
 viewBox="0.00 0.00 737.00 638.00" xmlns="http://www.w3.org/2000/svg" xmlns:xlink="http://www.w3.org/1999/xlink">
<g id="graph0" class="graph" transform="scale(1 1) rotate(0) translate(4 634)">
<title>G</title>
<polygon fill="#ffffff" stroke="transparent" points="-4,4 -4,-634 733,-634 733,4 -4,4"/>
<g id="clust1" class="cluster">
<title>cluster_root</title>
<g id="a_clust1"><a xlink:title="eventq_index=0&#10;full_system=false&#10;sim_quantum=0&#10;time_sync_enable=false&#10;time_sync_period=100000000000&#10;time_sync_spin_threshold=100000000">
<path fill="#bab6ae" stroke="#000000" d="M20,-8C20,-8 709,-8 709,-8 715,-8 721,-14 721,-20 721,-20 721,-610 721,-610 721,-616 715,-622 709,-622 709,-622 20,-622 20,-622 14,-622 8,-616 8,-610 8,-610 8,-20 8,-20 8,-14 14,-8 20,-8"/>
<text text-anchor="middle" x="364.5" y="-606.8" font-family="Arial" font-size="14.00" fill="#000000">root </text>
<text text-anchor="middle" x="364.5" y="-591.8" font-family="Arial" font-size="14.00" fill="#000000">: Root</text>
</a>
</g>
</g>
<g id="clust2" class="cluster">
<title>cluster_system</title>
<g id="a_clust2"><a xlink:title="boot_osflags=a&#10;cache_line_size=64&#10;eventq_index=0&#10;exit_on_work_items=false&#10;init_param=0&#10;kernel=&#10;kernel_addr_check=true&#10;kernel_extras=&#10;&#10;oad_addr_mask=18446744073709551615&#10;&#10;oad_offset=0&#10;mem_mode=timing&#10;mem_ranges=0:536870911&#10;memories=system.mem_ctrls&#10;mmap_using_noreserve=false&#10;multi_thread=false&#10;&#10;um_work_ids=16&#10;&#13;eadfile=&#10;&#13;edirect_paths=system.redirect_paths0 system.redirect_paths1 system.redirect_paths2 system.redirect_paths3&#10;symbolfile=&#10;thermal_components=&#10;thermal_model=Null&#10;work_begin_ckpt_count=0&#10;work_begin_cpu_id_exit=&#45;1&#10;work_begin_exit_count=0&#10;work_cpus_ckpt_count=0&#10;work_end_ckpt_count=0&#10;work_end_exit_count=0&#10;work_item_id=&#45;1">
<path fill="#e4e7eb" stroke="#000000" d="M28,-16C28,-16 701,-16 701,-16 707,-16 713,-22 713,-28 713,-28 713,-564 713,-564 713,-570 707,-576 701,-576 701,-576 28,-576 28,-576 22,-576 16,-570 16,-564 16,-564 16,-28 16,-28 16,-22 22,-16 28,-16"/>
<text text-anchor="middle" x="364.5" y="-560.8" font-family="Arial" font-size="14.00" fill="#000000">system </text>
<text text-anchor="middle" x="364.5" y="-545.8" font-family="Arial" font-size="14.00" fill="#000000">: System</text>
</a>
</g>
</g>
<g id="clust3" class="cluster">
<title>cluster_system_membus</title>
<g id="a_clust3"><a xlink:title="clk_domain=system.clk_domain&#10;default_p_state=UNDEFINED&#10;eventq_index=0&#10;forward_latency=4&#10;frontend_latency=3&#10;max_outstanding_snoops=512&#10;max_routing_table_size=512&#10;p_state_clk_gate_bins=20&#10;p_state_clk_gate_max=1000000000000&#10;p_state_clk_gate_min=1000&#10;point_of_coherency=true&#10;point_of_unification=true&#10;power_model=&#10;&#13;esponse_latency=2&#10;snoop_filter=system.membus.snoop_filter&#10;snoop_response_latency=4&#10;system=system&#10;use_default_range=false&#10;width=16">
<path fill="#6f798c" stroke="#000000" d="M499,-354C499,-354 625,-354 625,-354 631,-354 637,-360 637,-366 637,-366 637,-433 637,-433 637,-439 631,-445 625,-445 625,-445 499,-445 499,-445 493,-445 487,-439 487,-433 487,-433 487,-366 487,-366 487,-360 493,-354 499,-354"/>
<text text-anchor="middle" x="562" y="-429.8" font-family="Arial" font-size="14.00" fill="#000000">membus </text>
<text text-anchor="middle" x="562" y="-414.8" font-family="Arial" font-size="14.00" fill="#000000">: SystemXBar</text>
</a>
</g>
</g>
<g id="clust12" class="cluster">
<title>cluster_system_mem_ctrls</title>
<g id="a_clust12"><a xlink:title="bandwidth=73.000000&#10;clk_domain=system.clk_domain&#10;conf_table_reported=true&#10;default_p_state=UNDEFINED&#10;eventq_index=0&#10;in_addr_map=true&#10;kvm_map=true&#10;&#10;atency=30000&#10;&#10;atency_var=0&#10;&#10;ull=false&#10;p_state_clk_gate_bins=20&#10;p_state_clk_gate_max=1000000000000&#10;p_state_clk_gate_min=1000&#10;power_model=&#10;&#13;ange=0:536870911">
<path fill="#5e5958" stroke="#000000" d="M36,-163C36,-163 133,-163 133,-163 139,-163 145,-169 145,-175 145,-175 145,-242 145,-242 145,-248 139,-254 133,-254 133,-254 36,-254 36,-254 30,-254 24,-248 24,-242 24,-242 24,-175 24,-175 24,-169 30,-163 36,-163"/>
<text text-anchor="middle" x="84.5" y="-238.8" font-family="Arial" font-size="14.00" fill="#000000">mem_ctrls </text>
<text text-anchor="middle" x="84.5" y="-223.8" font-family="Arial" font-size="14.00" fill="#000000">: SimpleMemory</text>
</a>
</g>
</g>
<g id="clust15" class="cluster">
<title>cluster_system_cpu</title>
<g id="a_clust15"><a xlink:title="branchPred=system.cpu.branchPred&#10;checker=Null&#10;clk_domain=system.cpu_clk_domain&#10;cpu_id=0&#10;decodeCycleInput=true&#10;decodeInputBufferSize=3&#10;decodeInputWidth=2&#10;decodeToExecuteForwardDelay=1&#10;default_p_state=UNDEFINED&#10;do_checkpoint_insts=true&#10;do_quiesce=true&#10;do_statistics_insts=true&#10;dtb=system.cpu.dtb&#10;enableIdling=true&#10;eventq_index=0&#10;executeAllowEarlyMemoryIssue=true&#10;executeBranchDelay=1&#10;executeCommitLimit=2&#10;executeCycleInput=true&#10;executeFuncUnits=system.cpu.executeFuncUnits&#10;executeInputBufferSize=7&#10;executeInputWidth=2&#10;executeIssueLimit=2&#10;executeLSQMaxStoreBufferStoresPerCycle=2&#10;executeLSQRequestsQueueSize=1&#10;executeLSQStoreBufferSize=5&#10;executeLSQTransfersQueueSize=2&#10;executeMaxAccessesInMemory=2&#10;executeMemoryCommitLimit=1&#10;executeMemoryIssueLimit=1&#10;executeMemoryWidth=0&#10;executeSetTraceTimeOnCommit=true&#10;executeSetTraceTimeOnIssue=false&#10;fetch1FetchLimit=1&#10;fetch1LineSnapWidth=0&#10;fetch1LineWidth=0&#10;fetch1ToFetch2BackwardDelay=1&#10;fetch1ToFetch2ForwardDelay=1&#10;fetch2CycleInput=true&#10;fetch2InputBufferSize=2&#10;fetch2ToDecodeForwardDelay=1&#10;function_trace=false&#10;function_trace_start=0&#10;interrupts=system.cpu.interrupts&#10;isa=system.cpu.isa&#10;itb=system.cpu.itb&#10;max_insts_all_threads=0&#10;max_insts_any_thread=0&#10;&#10;umThreads=1&#10;p_state_clk_gate_bins=20&#10;p_state_clk_gate_max=1000000000000&#10;p_state_clk_gate_min=1000&#10;power_gating_on_idle=false&#10;power_model=&#10;profile=0&#10;progress_interval=0&#10;pwr_gating_latency=300&#10;simpoint_start_insts=&#10;socket_id=0&#10;switched_out=false&#10;syscallRetryLatency=10000&#10;system=system&#10;threadPolicy=RoundRobin&#10;tracer=system.cpu.tracer&#10;wait_for_remote_gdb=false&#10;workload=system.cpu.workload">
<path fill="#bbc6d9" stroke="#000000" d="M165,-24C165,-24 671,-24 671,-24 677,-24 683,-30 683,-36 683,-36 683,-334 683,-334 683,-340 677,-346 671,-346 671,-346 165,-346 165,-346 159,-346 153,-340 153,-334 153,-334 153,-36 153,-36 153,-30 159,-24 165,-24"/>
<text text-anchor="middle" x="418" y="-330.8" font-family="Arial" font-size="14.00" fill="#000000">cpu </text>
<text text-anchor="middle" x="418" y="-315.8" font-family="Arial" font-size="14.00" fill="#000000">: MinorCPU</text>
</a>
</g>
</g>
<g id="clust17" class="cluster">
<title>cluster_system_cpu_dtb</title>
<g id="a_clust17"><a xlink:title="eventq_index=0&#10;is_stage2=false&#10;size=64&#10;sys=system&#10;walker=system.cpu.dtb.walker">
<path fill="#bab6ae" stroke="#000000" d="M542,-155C542,-155 663,-155 663,-155 669,-155 675,-161 675,-167 675,-167 675,-288 675,-288 675,-294 669,-300 663,-300 663,-300 542,-300 542,-300 536,-300 530,-294 530,-288 530,-288 530,-167 530,-167 530,-161 536,-155 542,-155"/>
<text text-anchor="middle" x="602.5" y="-284.8" font-family="Arial" font-size="14.00" fill="#000000">dtb </text>
<text text-anchor="middle" x="602.5" y="-269.8" font-family="Arial" font-size="14.00" fill="#000000">: ArmDTB</text>
</a>
</g>
</g>
<g id="clust18" class="cluster">
<title>cluster_system_cpu_dtb_walker</title>
<g id="a_clust18"><a xlink:title="clk_domain=system.cpu_clk_domain&#10;default_p_state=UNDEFINED&#10;eventq_index=0&#10;is_stage2=false&#10;&#10;um_squash_per_cycle=2&#10;p_state_clk_gate_bins=20&#10;p_state_clk_gate_max=1000000000000&#10;p_state_clk_gate_min=1000&#10;power_model=&#10;sys=system">
<path fill="#9f9c95" stroke="#000000" d="M550,-163C550,-163 655,-163 655,-163 661,-163 667,-169 667,-175 667,-175 667,-242 667,-242 667,-248 661,-254 655,-254 655,-254 550,-254 550,-254 544,-254 538,-248 538,-242 538,-242 538,-175 538,-175 538,-169 544,-163 550,-163"/>
<text text-anchor="middle" x="602.5" y="-238.8" font-family="Arial" font-size="14.00" fill="#000000">walker </text>
<text text-anchor="middle" x="602.5" y="-223.8" font-family="Arial" font-size="14.00" fill="#000000">: ArmTableWalker</text>
</a>
</g>
</g>
<g id="clust105" class="cluster">
<title>cluster_system_cpu_icache</title>
<g id="a_clust105"><a xlink:title="addr_ranges=0:18446744073709551615&#10;assoc=2&#10;clk_domain=system.cpu_clk_domain&#10;clusivity=mostly_incl&#10;compressor=Null&#10;data_latency=2&#10;default_p_state=UNDEFINED&#10;demand_mshr_reserve=1&#10;eventq_index=0&#10;is_read_only=true&#10;max_miss_count=0&#10;mshrs=4&#10;p_state_clk_gate_bins=20&#10;p_state_clk_gate_max=1000000000000&#10;p_state_clk_gate_min=1000&#10;power_model=&#10;prefetch_on_access=false&#10;prefetcher=Null&#10;&#13;eplacement_policy=system.cpu.icache.replacement_policy&#10;&#13;esponse_latency=2&#10;sequential_access=false&#10;size=32768&#10;system=system&#10;tag_latency=2&#10;tags=system.cpu.icache.tags&#10;tgts_per_mshr=20&#10;warmup_percentage=0&#10;write_allocator=Null&#10;write_buffers=8&#10;writeback_clean=true">
<path fill="#bab6ae" stroke="#000000" d="M232,-32C232,-32 402,-32 402,-32 408,-32 414,-38 414,-44 414,-44 414,-111 414,-111 414,-117 408,-123 402,-123 402,-123 232,-123 232,-123 226,-123 220,-117 220,-111 220,-111 220,-44 220,-44 220,-38 226,-32 232,-32"/>
<text text-anchor="middle" x="317" y="-107.8" font-family="Arial" font-size="14.00" fill="#000000">icache </text>
<text text-anchor="middle" x="317" y="-92.8" font-family="Arial" font-size="14.00" fill="#000000">: L1_ICache</text>
</a>
</g>
</g>
<g id="clust109" class="cluster">
<title>cluster_system_cpu_dcache</title>
<g id="a_clust109"><a xlink:title="addr_ranges=0:18446744073709551615&#10;assoc=2&#10;clk_domain=system.cpu_clk_domain&#10;clusivity=mostly_incl&#10;compressor=Null&#10;data_latency=2&#10;default_p_state=UNDEFINED&#10;demand_mshr_reserve=1&#10;eventq_index=0&#10;is_read_only=false&#10;max_miss_count=0&#10;mshrs=4&#10;p_state_clk_gate_bins=20&#10;p_state_clk_gate_max=1000000000000&#10;p_state_clk_gate_min=1000&#10;power_model=&#10;prefetch_on_access=false&#10;prefetcher=Null&#10;&#13;eplacement_policy=system.cpu.dcache.replacement_policy&#10;&#13;esponse_latency=2&#10;sequential_access=false&#10;size=65536&#10;system=system&#10;tag_latency=2&#10;tags=system.cpu.dcache.tags&#10;tgts_per_mshr=20&#10;warmup_percentage=0&#10;write_allocator=Null&#10;write_buffers=8&#10;writeback_clean=false">
<path fill="#bab6ae" stroke="#000000" d="M463,-32C463,-32 633,-32 633,-32 639,-32 645,-38 645,-44 645,-44 645,-111 645,-111 645,-117 639,-123 633,-123 633,-123 463,-123 463,-123 457,-123 451,-117 451,-111 451,-111 451,-44 451,-44 451,-38 457,-32 463,-32"/>
<text text-anchor="middle" x="548" y="-107.8" font-family="Arial" font-size="14.00" fill="#000000">dcache </text>
<text text-anchor="middle" x="548" y="-92.8" font-family="Arial" font-size="14.00" fill="#000000">: L1_DCache</text>
</a>
</g>
</g>
<g id="clust117" class="cluster">
<title>cluster_system_cpu_itb</title>
<g id="a_clust117"><a xlink:title="eventq_index=0&#10;is_stage2=false&#10;size=64&#10;sys=system&#10;walker=system.cpu.itb.walker">
<path fill="#bab6ae" stroke="#000000" d="M389,-155C389,-155 510,-155 510,-155 516,-155 522,-161 522,-167 522,-167 522,-288 522,-288 522,-294 516,-300 510,-300 510,-300 389,-300 389,-300 383,-300 377,-294 377,-288 377,-288 377,-167 377,-167 377,-161 383,-155 389,-155"/>
<text text-anchor="middle" x="449.5" y="-284.8" font-family="Arial" font-size="14.00" fill="#000000">itb </text>
<text text-anchor="middle" x="449.5" y="-269.8" font-family="Arial" font-size="14.00" fill="#000000">: ArmITB</text>
</a>
</g>
</g>
<g id="clust118" class="cluster">
<title>cluster_system_cpu_itb_walker</title>
<g id="a_clust118"><a xlink:title="clk_domain=system.cpu_clk_domain&#10;default_p_state=UNDEFINED&#10;eventq_index=0&#10;is_stage2=false&#10;&#10;um_squash_per_cycle=2&#10;p_state_clk_gate_bins=20&#10;p_state_clk_gate_max=1000000000000&#10;p_state_clk_gate_min=1000&#10;power_model=&#10;sys=system">
<path fill="#9f9c95" stroke="#000000" d="M397,-163C397,-163 502,-163 502,-163 508,-163 514,-169 514,-175 514,-175 514,-242 514,-242 514,-248 508,-254 502,-254 502,-254 397,-254 397,-254 391,-254 385,-248 385,-242 385,-242 385,-175 385,-175 385,-169 391,-163 397,-163"/>
<text text-anchor="middle" x="449.5" y="-238.8" font-family="Arial" font-size="14.00" fill="#000000">walker </text>
<text text-anchor="middle" x="449.5" y="-223.8" font-family="Arial" font-size="14.00" fill="#000000">: ArmTableWalker</text>
</a>
</g>
</g>
<!-- system_system_port -->
<g id="node1" class="node">
<title>system_system_port</title>
<path fill="#b6b8bc" stroke="#000000" d="M566,-493.5C566,-493.5 638,-493.5 638,-493.5 644,-493.5 650,-499.5 650,-505.5 650,-505.5 650,-517.5 650,-517.5 650,-523.5 644,-529.5 638,-529.5 638,-529.5 566,-529.5 566,-529.5 560,-529.5 554,-523.5 554,-517.5 554,-517.5 554,-505.5 554,-505.5 554,-499.5 560,-493.5 566,-493.5"/>
<text text-anchor="middle" x="602" y="-507.8" font-family="Arial" font-size="14.00" fill="#000000">system_port</text>
</g>
<!-- system_membus_slave -->
<g id="node3" class="node">
<title>system_membus_slave</title>
<path fill="#586070" stroke="#000000" d="M587,-362.5C587,-362.5 617,-362.5 617,-362.5 623,-362.5 629,-368.5 629,-374.5 629,-374.5 629,-386.5 629,-386.5 629,-392.5 623,-398.5 617,-398.5 617,-398.5 587,-398.5 587,-398.5 581,-398.5 575,-392.5 575,-386.5 575,-386.5 575,-374.5 575,-374.5 575,-368.5 581,-362.5 587,-362.5"/>
<text text-anchor="middle" x="602" y="-376.8" font-family="Arial" font-size="14.00" fill="#000000">slave</text>
</g>
<!-- system_system_port&#45;&gt;system_membus_slave -->
<g id="edge1" class="edge">
<title>system_system_port&#45;&gt;system_membus_slave</title>
<path fill="none" stroke="#000000" d="M602,-493.285C602,-471.3856 602,-434.3861 602,-408.7663"/>
<polygon fill="#000000" stroke="#000000" points="605.5001,-408.5603 602,-398.5603 598.5001,-408.5603 605.5001,-408.5603"/>
</g>
<!-- system_membus_master -->
<g id="node2" class="node">
<title>system_membus_master</title>
<path fill="#586070" stroke="#000000" d="M507.5,-362.5C507.5,-362.5 544.5,-362.5 544.5,-362.5 550.5,-362.5 556.5,-368.5 556.5,-374.5 556.5,-374.5 556.5,-386.5 556.5,-386.5 556.5,-392.5 550.5,-398.5 544.5,-398.5 544.5,-398.5 507.5,-398.5 507.5,-398.5 501.5,-398.5 495.5,-392.5 495.5,-386.5 495.5,-386.5 495.5,-374.5 495.5,-374.5 495.5,-368.5 501.5,-362.5 507.5,-362.5"/>
<text text-anchor="middle" x="526" y="-376.8" font-family="Arial" font-size="14.00" fill="#000000">master</text>
</g>
<!-- system_mem_ctrls_port -->
<g id="node4" class="node">
<title>system_mem_ctrls_port</title>
<path fill="#4b4746" stroke="#000000" d="M95,-171.5C95,-171.5 125,-171.5 125,-171.5 131,-171.5 137,-177.5 137,-183.5 137,-183.5 137,-195.5 137,-195.5 137,-201.5 131,-207.5 125,-207.5 125,-207.5 95,-207.5 95,-207.5 89,-207.5 83,-201.5 83,-195.5 83,-195.5 83,-183.5 83,-183.5 83,-177.5 89,-171.5 95,-171.5"/>
<text text-anchor="middle" x="110" y="-185.8" font-family="Arial" font-size="14.00" fill="#000000">port</text>
</g>
<!-- system_membus_master&#45;&gt;system_mem_ctrls_port -->
<g id="edge2" class="edge">
<title>system_membus_master&#45;&gt;system_mem_ctrls_port</title>
<path fill="none" stroke="#000000" d="M495.4853,-379.708C410.4113,-377.2251 175.0986,-368.3832 149,-346 112.113,-314.3642 107.3154,-253.6983 108.0515,-217.9012"/>
<polygon fill="#000000" stroke="#000000" points="111.5585,-217.7717 108.4282,-207.6499 104.5632,-217.5146 111.5585,-217.7717"/>
</g>
<!-- system_cpu_dtb_walker_port -->
<g id="node7" class="node">
<title>system_cpu_dtb_walker_port</title>
<path fill="#7f7c77" stroke="#000000" d="M587,-171.5C587,-171.5 617,-171.5 617,-171.5 623,-171.5 629,-177.5 629,-183.5 629,-183.5 629,-195.5 629,-195.5 629,-201.5 623,-207.5 617,-207.5 617,-207.5 587,-207.5 587,-207.5 581,-207.5 575,-201.5 575,-195.5 575,-195.5 575,-183.5 575,-183.5 575,-177.5 581,-171.5 587,-171.5"/>
<text text-anchor="middle" x="602" y="-185.8" font-family="Arial" font-size="14.00" fill="#000000">port</text>
</g>
<!-- system_membus_slave&#45;&gt;system_cpu_dtb_walker_port -->
<g id="edge6" class="edge">
<title>system_membus_slave&#45;&gt;system_cpu_dtb_walker_port</title>
<path fill="none" stroke="#000000" d="M602,-352.09C602,-312.3133 602,-241.1585 602,-207.7584"/>
<polygon fill="#000000" stroke="#000000" points="598.5001,-352.1861 602,-362.1861 605.5001,-352.1862 598.5001,-352.1861"/>
</g>
<!-- system_cpu_icache_mem_side -->
<g id="node8" class="node">
<title>system_cpu_icache_mem_side</title>
<path fill="#94918b" stroke="#000000" d="M334,-40.5C334,-40.5 394,-40.5 394,-40.5 400,-40.5 406,-46.5 406,-52.5 406,-52.5 406,-64.5 406,-64.5 406,-70.5 400,-76.5 394,-76.5 394,-76.5 334,-76.5 334,-76.5 328,-76.5 322,-70.5 322,-64.5 322,-64.5 322,-52.5 322,-52.5 322,-46.5 328,-40.5 334,-40.5"/>
<text text-anchor="middle" x="364" y="-54.8" font-family="Arial" font-size="14.00" fill="#000000">mem_side</text>
</g>
<!-- system_membus_slave&#45;&gt;system_cpu_icache_mem_side -->
<g id="edge3" class="edge">
<title>system_membus_slave&#45;&gt;system_cpu_icache_mem_side</title>
<path fill="none" stroke="#000000" d="M638.492,-370.9252C651.0161,-365.7021 663.7058,-357.8023 671,-346 682.1572,-327.9473 684.9048,-171.0324 671,-155 638.0544,-117.0134 493.2891,-142.6396 447,-123 421.6325,-112.2371 397.3137,-91.7305 381.6323,-76.7193"/>
<polygon fill="#000000" stroke="#000000" points="637.2063,-367.6689 629.0392,-374.4179 639.6324,-374.2351 637.2063,-367.6689"/>
</g>
<!-- system_cpu_dcache_mem_side -->
<g id="node10" class="node">
<title>system_cpu_dcache_mem_side</title>
<path fill="#94918b" stroke="#000000" d="M565,-40.5C565,-40.5 625,-40.5 625,-40.5 631,-40.5 637,-46.5 637,-52.5 637,-52.5 637,-64.5 637,-64.5 637,-70.5 631,-76.5 625,-76.5 625,-76.5 565,-76.5 565,-76.5 559,-76.5 553,-70.5 553,-64.5 553,-64.5 553,-52.5 553,-52.5 553,-46.5 559,-40.5 565,-40.5"/>
<text text-anchor="middle" x="595" y="-54.8" font-family="Arial" font-size="14.00" fill="#000000">mem_side</text>
</g>
<!-- system_membus_slave&#45;&gt;system_cpu_dcache_mem_side -->
<g id="edge4" class="edge">
<title>system_membus_slave&#45;&gt;system_cpu_dcache_mem_side</title>
<path fill="none" stroke="#000000" d="M638.8713,-375.6474C657.1857,-371.1691 677.7538,-362.5579 689,-346 736.6957,-275.7772 720.9703,-233.6386 689,-155 675.5233,-121.851 644.5794,-93.8563 621.8607,-76.6955"/>
<polygon fill="#000000" stroke="#000000" points="638.0615,-372.2412 629.0019,-377.7344 639.5097,-379.0897 638.0615,-372.2412"/>
</g>
<!-- system_cpu_itb_walker_port -->
<g id="node12" class="node">
<title>system_cpu_itb_walker_port</title>
<path fill="#7f7c77" stroke="#000000" d="M464,-171.5C464,-171.5 494,-171.5 494,-171.5 500,-171.5 506,-177.5 506,-183.5 506,-183.5 506,-195.5 506,-195.5 506,-201.5 500,-207.5 494,-207.5 494,-207.5 464,-207.5 464,-207.5 458,-207.5 452,-201.5 452,-195.5 452,-195.5 452,-183.5 452,-183.5 452,-177.5 458,-171.5 464,-171.5"/>
<text text-anchor="middle" x="479" y="-185.8" font-family="Arial" font-size="14.00" fill="#000000">port</text>
</g>
<!-- system_membus_slave&#45;&gt;system_cpu_itb_walker_port -->
<g id="edge5" class="edge">
<title>system_membus_slave&#45;&gt;system_cpu_itb_walker_port</title>
<path fill="none" stroke="#000000" d="M571.3556,-356.7855C569.5818,-355.7801 567.7907,-354.8425 566,-354 552.7349,-347.7589 544.8367,-355.8732 534,-346 493.4455,-309.0511 482.7915,-240.4314 479.9945,-207.7363"/>
<polygon fill="#000000" stroke="#000000" points="569.6742,-359.8634 579.9966,-362.2509 573.4161,-353.9474 569.6742,-359.8634"/>
</g>
<!-- system_cpu_icache_port -->
<g id="node5" class="node">
<title>system_cpu_icache_port</title>
<path fill="#959ead" stroke="#000000" d="M173,-171.5C173,-171.5 241,-171.5 241,-171.5 247,-171.5 253,-177.5 253,-183.5 253,-183.5 253,-195.5 253,-195.5 253,-201.5 247,-207.5 241,-207.5 241,-207.5 173,-207.5 173,-207.5 167,-207.5 161,-201.5 161,-195.5 161,-195.5 161,-183.5 161,-183.5 161,-177.5 167,-171.5 173,-171.5"/>
<text text-anchor="middle" x="207" y="-185.8" font-family="Arial" font-size="14.00" fill="#000000">icache_port</text>
</g>
<!-- system_cpu_icache_cpu_side -->
<g id="node9" class="node">
<title>system_cpu_icache_cpu_side</title>
<path fill="#94918b" stroke="#000000" d="M240,-40.5C240,-40.5 292,-40.5 292,-40.5 298,-40.5 304,-46.5 304,-52.5 304,-52.5 304,-64.5 304,-64.5 304,-70.5 298,-76.5 292,-76.5 292,-76.5 240,-76.5 240,-76.5 234,-76.5 228,-70.5 228,-64.5 228,-64.5 228,-52.5 228,-52.5 228,-46.5 234,-40.5 240,-40.5"/>
<text text-anchor="middle" x="266" y="-54.8" font-family="Arial" font-size="14.00" fill="#000000">cpu_side</text>
</g>
<!-- system_cpu_icache_port&#45;&gt;system_cpu_icache_cpu_side -->
<g id="edge7" class="edge">
<title>system_cpu_icache_port&#45;&gt;system_cpu_icache_cpu_side</title>
<path fill="none" stroke="#000000" d="M215.2037,-171.285C225.1989,-149.0923 242.1783,-111.3923 253.7302,-85.7431"/>
<polygon fill="#000000" stroke="#000000" points="256.9507,-87.1155 257.866,-76.5603 250.5681,-84.2409 256.9507,-87.1155"/>
</g>
<!-- system_cpu_dcache_port -->
<g id="node6" class="node">
<title>system_cpu_dcache_port</title>
<path fill="#959ead" stroke="#000000" d="M283,-171.5C283,-171.5 357,-171.5 357,-171.5 363,-171.5 369,-177.5 369,-183.5 369,-183.5 369,-195.5 369,-195.5 369,-201.5 363,-207.5 357,-207.5 357,-207.5 283,-207.5 283,-207.5 277,-207.5 271,-201.5 271,-195.5 271,-195.5 271,-183.5 271,-183.5 271,-177.5 277,-171.5 283,-171.5"/>
<text text-anchor="middle" x="320" y="-185.8" font-family="Arial" font-size="14.00" fill="#000000">dcache_port</text>
</g>
<!-- system_cpu_dcache_cpu_side -->
<g id="node11" class="node">
<title>system_cpu_dcache_cpu_side</title>
<path fill="#94918b" stroke="#000000" d="M471,-40.5C471,-40.5 523,-40.5 523,-40.5 529,-40.5 535,-46.5 535,-52.5 535,-52.5 535,-64.5 535,-64.5 535,-70.5 529,-76.5 523,-76.5 523,-76.5 471,-76.5 471,-76.5 465,-76.5 459,-70.5 459,-64.5 459,-64.5 459,-52.5 459,-52.5 459,-46.5 465,-40.5 471,-40.5"/>
<text text-anchor="middle" x="497" y="-54.8" font-family="Arial" font-size="14.00" fill="#000000">cpu_side</text>
</g>
<!-- system_cpu_dcache_port&#45;&gt;system_cpu_dcache_cpu_side -->
<g id="edge8" class="edge">
<title>system_cpu_dcache_port&#45;&gt;system_cpu_dcache_cpu_side</title>
<path fill="none" stroke="#000000" d="M348.339,-171.2273C368.1612,-158.2157 395.0837,-140.0781 418,-123 435.01,-110.3235 453.4022,-95.3845 468.157,-83.0775"/>
<polygon fill="#000000" stroke="#000000" points="470.5359,-85.6504 475.948,-76.5422 466.0372,-80.2874 470.5359,-85.6504"/>
</g>
</g>
</svg>
