<?xml version="1.0" encoding="UTF-8" standalone="no"?>
<!DOCTYPE svg PUBLIC "-//W3C//DTD SVG 1.1//EN"
 "http://www.w3.org/Graphics/SVG/1.1/DTD/svg11.dtd">
<!-- Generated by graphviz version 2.40.1 (20161225.0304)
 -->
<!-- Title: G Pages: 1 -->
<svg width="729pt" height="638pt"
 viewBox="0.00 0.00 729.00 638.00" xmlns="http://www.w3.org/2000/svg" xmlns:xlink="http://www.w3.org/1999/xlink">
<g id="graph0" class="graph" transform="scale(1 1) rotate(0) translate(4 634)">
<title>G</title>
<polygon fill="#ffffff" stroke="transparent" points="-4,4 -4,-634 725,-634 725,4 -4,4"/>
<g id="clust1" class="cluster">
<title>cluster_root</title>
<g id="a_clust1"><a xlink:title="eventq_index=0&#10;full_system=false&#10;sim_quantum=0&#10;time_sync_enable=false&#10;time_sync_period=100000000000&#10;time_sync_spin_threshold=100000000">
<path fill="#bab6ae" stroke="#000000" d="M20,-8C20,-8 701,-8 701,-8 707,-8 713,-14 713,-20 713,-20 713,-610 713,-610 713,-616 707,-622 701,-622 701,-622 20,-622 20,-622 14,-622 8,-616 8,-610 8,-610 8,-20 8,-20 8,-14 14,-8 20,-8"/>
<text text-anchor="middle" x="360.5" y="-606.8" font-family="Arial" font-size="14.00" fill="#000000">root </text>
<text text-anchor="middle" x="360.5" y="-591.8" font-family="Arial" font-size="14.00" fill="#000000">: Root</text>
</a>
</g>
</g>
<g id="clust2" class="cluster">
<title>cluster_system</title>
<g id="a_clust2"><a xlink:title="boot_osflags=a&#10;cache_line_size=64&#10;eventq_index=0&#10;exit_on_work_items=false&#10;init_param=0&#10;kernel=&#10;kernel_addr_check=true&#10;kernel_extras=&#10;&#10;oad_addr_mask=18446744073709551615&#10;&#10;oad_offset=0&#10;mem_mode=atomic_noncaching&#10;mem_ranges=0:536870911&#10;memories=system.mem_ctrls&#10;mmap_using_noreserve=false&#10;multi_thread=false&#10;&#10;um_work_ids=16&#10;&#13;eadfile=&#10;&#13;edirect_paths=system.redirect_paths0 system.redirect_paths1 system.redirect_paths2 system.redirect_paths3&#10;symbolfile=&#10;thermal_components=&#10;thermal_model=Null&#10;work_begin_ckpt_count=0&#10;work_begin_cpu_id_exit=&#45;1&#10;work_begin_exit_count=0&#10;work_cpus_ckpt_count=0&#10;work_end_ckpt_count=0&#10;work_end_exit_count=0&#10;work_item_id=&#45;1">
<path fill="#e4e7eb" stroke="#000000" d="M28,-16C28,-16 693,-16 693,-16 699,-16 705,-22 705,-28 705,-28 705,-564 705,-564 705,-570 699,-576 693,-576 693,-576 28,-576 28,-576 22,-576 16,-570 16,-564 16,-564 16,-28 16,-28 16,-22 22,-16 28,-16"/>
<text text-anchor="middle" x="360.5" y="-560.8" font-family="Arial" font-size="14.00" fill="#000000">system </text>
<text text-anchor="middle" x="360.5" y="-545.8" font-family="Arial" font-size="14.00" fill="#000000">: System</text>
</a>
</g>
</g>
<g id="clust3" class="cluster">
<title>cluster_system_membus</title>
<g id="a_clust3"><a xlink:title="clk_domain=system.clk_domain&#10;default_p_state=UNDEFINED&#10;eventq_index=0&#10;forward_latency=4&#10;frontend_latency=3&#10;max_outstanding_snoops=512&#10;max_routing_table_size=512&#10;p_state_clk_gate_bins=20&#10;p_state_clk_gate_max=1000000000000&#10;p_state_clk_gate_min=1000&#10;point_of_coherency=true&#10;point_of_unification=true&#10;power_model=&#10;&#13;esponse_latency=2&#10;snoop_filter=system.membus.snoop_filter&#10;snoop_response_latency=4&#10;system=system&#10;use_default_range=false&#10;width=16">
<path fill="#6f798c" stroke="#000000" d="M358,-354C358,-354 484,-354 484,-354 490,-354 496,-360 496,-366 496,-366 496,-433 496,-433 496,-439 490,-445 484,-445 484,-445 358,-445 358,-445 352,-445 346,-439 346,-433 346,-433 346,-366 346,-366 346,-360 352,-354 358,-354"/>
<text text-anchor="middle" x="421" y="-429.8" font-family="Arial" font-size="14.00" fill="#000000">membus </text>
<text text-anchor="middle" x="421" y="-414.8" font-family="Arial" font-size="14.00" fill="#000000">: SystemXBar</text>
</a>
</g>
</g>
<g id="clust12" class="cluster">
<title>cluster_system_mem_ctrls</title>
<g id="a_clust12"><a xlink:title="bandwidth=73.000000&#10;clk_domain=system.clk_domain&#10;conf_table_reported=true&#10;default_p_state=UNDEFINED&#10;eventq_index=0&#10;in_addr_map=true&#10;kvm_map=true&#10;&#10;atency=30000&#10;&#10;atency_var=0&#10;&#10;ull=false&#10;p_state_clk_gate_bins=20&#10;p_state_clk_gate_max=1000000000000&#10;p_state_clk_gate_min=1000&#10;power_model=&#10;&#13;ange=0:536870911">
<path fill="#5e5958" stroke="#000000" d="M36,-163C36,-163 133,-163 133,-163 139,-163 145,-169 145,-175 145,-175 145,-242 145,-242 145,-248 139,-254 133,-254 133,-254 36,-254 36,-254 30,-254 24,-248 24,-242 24,-242 24,-175 24,-175 24,-169 30,-163 36,-163"/>
<text text-anchor="middle" x="84.5" y="-238.8" font-family="Arial" font-size="14.00" fill="#000000">mem_ctrls </text>
<text text-anchor="middle" x="84.5" y="-223.8" font-family="Arial" font-size="14.00" fill="#000000">: SimpleMemory</text>
</a>
</g>
</g>
<g id="clust15" class="cluster">
<title>cluster_system_cpu</title>
<g id="a_clust15"><a xlink:title="branchPred=Null&#10;checker=Null&#10;clk_domain=system.cpu_clk_domain&#10;cpu_id=0&#10;default_p_state=UNDEFINED&#10;do_checkpoint_insts=true&#10;do_quiesce=true&#10;do_statistics_insts=true&#10;dtb=system.cpu.dtb&#10;eventq_index=0&#10;function_trace=false&#10;function_trace_start=0&#10;interrupts=system.cpu.interrupts&#10;isa=system.cpu.isa&#10;itb=system.cpu.itb&#10;max_insts_all_threads=0&#10;max_insts_any_thread=0&#10;&#10;umThreads=1&#10;p_state_clk_gate_bins=20&#10;p_state_clk_gate_max=1000000000000&#10;p_state_clk_gate_min=1000&#10;power_gating_on_idle=false&#10;power_model=&#10;profile=0&#10;progress_interval=0&#10;pwr_gating_latency=300&#10;simpoint_start_insts=&#10;simulate_data_stalls=false&#10;simulate_inst_stalls=false&#10;socket_id=0&#10;switched_out=false&#10;syscallRetryLatency=10000&#10;system=system&#10;tracer=system.cpu.tracer&#10;wait_for_remote_gdb=false&#10;width=1&#10;workload=system.cpu.workload">
<path fill="#bbc6d9" stroke="#000000" d="M177,-24C177,-24 683,-24 683,-24 689,-24 695,-30 695,-36 695,-36 695,-334 695,-334 695,-340 689,-346 683,-346 683,-346 177,-346 177,-346 171,-346 165,-340 165,-334 165,-334 165,-36 165,-36 165,-30 171,-24 177,-24"/>
<text text-anchor="middle" x="430" y="-330.8" font-family="Arial" font-size="14.00" fill="#000000">cpu </text>
<text text-anchor="middle" x="430" y="-315.8" font-family="Arial" font-size="14.00" fill="#000000">: NonCachingSimpleCPU</text>
</a>
</g>
</g>
<g id="clust16" class="cluster">
<title>cluster_system_cpu_icache</title>
<g id="a_clust16"><a xlink:title="addr_ranges=0:18446744073709551615&#10;assoc=2&#10;clk_domain=system.cpu_clk_domain&#10;clusivity=mostly_incl&#10;compressor=Null&#10;data_latency=2&#10;default_p_state=UNDEFINED&#10;demand_mshr_reserve=1&#10;eventq_index=0&#10;is_read_only=true&#10;max_miss_count=0&#10;mshrs=4&#10;p_state_clk_gate_bins=20&#10;p_state_clk_gate_max=1000000000000&#10;p_state_clk_gate_min=1000&#10;power_model=&#10;prefetch_on_access=false&#10;prefetcher=Null&#10;&#13;eplacement_policy=system.cpu.icache.replacement_policy&#10;&#13;esponse_latency=2&#10;sequential_access=false&#10;size=32768&#10;system=system&#10;tag_latency=2&#10;tags=system.cpu.icache.tags&#10;tgts_per_mshr=20&#10;warmup_percentage=0&#10;write_allocator=Null&#10;write_buffers=8&#10;writeback_clean=true">
<path fill="#bab6ae" stroke="#000000" d="M185,-32C185,-32 355,-32 355,-32 361,-32 367,-38 367,-44 367,-44 367,-111 367,-111 367,-117 361,-123 355,-123 355,-123 185,-123 185,-123 179,-123 173,-117 173,-111 173,-111 173,-44 173,-44 173,-38 179,-32 185,-32"/>
<text text-anchor="middle" x="270" y="-107.8" font-family="Arial" font-size="14.00" fill="#000000">icache </text>
<text text-anchor="middle" x="270" y="-92.8" font-family="Arial" font-size="14.00" fill="#000000">: L1_ICache</text>
</a>
</g>
</g>
<g id="clust20" class="cluster">
<title>cluster_system_cpu_dtb</title>
<g id="a_clust20"><a xlink:title="eventq_index=0&#10;is_stage2=false&#10;size=64&#10;sys=system&#10;walker=system.cpu.dtb.walker">
<path fill="#bab6ae" stroke="#000000" d="M554,-155C554,-155 675,-155 675,-155 681,-155 687,-161 687,-167 687,-167 687,-288 687,-288 687,-294 681,-300 675,-300 675,-300 554,-300 554,-300 548,-300 542,-294 542,-288 542,-288 542,-167 542,-167 542,-161 548,-155 554,-155"/>
<text text-anchor="middle" x="614.5" y="-284.8" font-family="Arial" font-size="14.00" fill="#000000">dtb </text>
<text text-anchor="middle" x="614.5" y="-269.8" font-family="Arial" font-size="14.00" fill="#000000">: ArmDTB</text>
</a>
</g>
</g>
<g id="clust21" class="cluster">
<title>cluster_system_cpu_dtb_walker</title>
<g id="a_clust21"><a xlink:title="clk_domain=system.cpu_clk_domain&#10;default_p_state=UNDEFINED&#10;eventq_index=0&#10;is_stage2=false&#10;&#10;um_squash_per_cycle=2&#10;p_state_clk_gate_bins=20&#10;p_state_clk_gate_max=1000000000000&#10;p_state_clk_gate_min=1000&#10;power_model=&#10;sys=system">
<path fill="#9f9c95" stroke="#000000" d="M562,-163C562,-163 667,-163 667,-163 673,-163 679,-169 679,-175 679,-175 679,-242 679,-242 679,-248 673,-254 667,-254 667,-254 562,-254 562,-254 556,-254 550,-248 550,-242 550,-242 550,-175 550,-175 550,-169 556,-163 562,-163"/>
<text text-anchor="middle" x="614.5" y="-238.8" font-family="Arial" font-size="14.00" fill="#000000">walker </text>
<text text-anchor="middle" x="614.5" y="-223.8" font-family="Arial" font-size="14.00" fill="#000000">: ArmTableWalker</text>
</a>
</g>
</g>
<g id="clust26" class="cluster">
<title>cluster_system_cpu_itb</title>
<g id="a_clust26"><a xlink:title="eventq_index=0&#10;is_stage2=false&#10;size=64&#10;sys=system&#10;walker=system.cpu.itb.walker">
<path fill="#bab6ae" stroke="#000000" d="M401,-155C401,-155 522,-155 522,-155 528,-155 534,-161 534,-167 534,-167 534,-288 534,-288 534,-294 528,-300 522,-300 522,-300 401,-300 401,-300 395,-300 389,-294 389,-288 389,-288 389,-167 389,-167 389,-161 395,-155 401,-155"/>
<text text-anchor="middle" x="461.5" y="-284.8" font-family="Arial" font-size="14.00" fill="#000000">itb </text>
<text text-anchor="middle" x="461.5" y="-269.8" font-family="Arial" font-size="14.00" fill="#000000">: ArmITB</text>
</a>
</g>
</g>
<g id="clust27" class="cluster">
<title>cluster_system_cpu_itb_walker</title>
<g id="a_clust27"><a xlink:title="clk_domain=system.cpu_clk_domain&#10;default_p_state=UNDEFINED&#10;eventq_index=0&#10;is_stage2=false&#10;&#10;um_squash_per_cycle=2&#10;p_state_clk_gate_bins=20&#10;p_state_clk_gate_max=1000000000000&#10;p_state_clk_gate_min=1000&#10;power_model=&#10;sys=system">
<path fill="#9f9c95" stroke="#000000" d="M409,-163C409,-163 514,-163 514,-163 520,-163 526,-169 526,-175 526,-175 526,-242 526,-242 526,-248 520,-254 514,-254 514,-254 409,-254 409,-254 403,-254 397,-248 397,-242 397,-242 397,-175 397,-175 397,-169 403,-163 409,-163"/>
<text text-anchor="middle" x="461.5" y="-238.8" font-family="Arial" font-size="14.00" fill="#000000">walker </text>
<text text-anchor="middle" x="461.5" y="-223.8" font-family="Arial" font-size="14.00" fill="#000000">: ArmTableWalker</text>
</a>
</g>
</g>
<g id="clust32" class="cluster">
<title>cluster_system_cpu_dcache</title>
<g id="a_clust32"><a xlink:title="addr_ranges=0:18446744073709551615&#10;assoc=2&#10;clk_domain=system.cpu_clk_domain&#10;clusivity=mostly_incl&#10;compressor=Null&#10;data_latency=2&#10;default_p_state=UNDEFINED&#10;demand_mshr_reserve=1&#10;eventq_index=0&#10;is_read_only=false&#10;max_miss_count=0&#10;mshrs=4&#10;p_state_clk_gate_bins=20&#10;p_state_clk_gate_max=1000000000000&#10;p_state_clk_gate_min=1000&#10;power_model=&#10;prefetch_on_access=false&#10;prefetcher=Null&#10;&#13;eplacement_policy=system.cpu.dcache.replacement_policy&#10;&#13;esponse_latency=2&#10;sequential_access=false&#10;size=65536&#10;system=system&#10;tag_latency=2&#10;tags=system.cpu.dcache.tags&#10;tgts_per_mshr=20&#10;warmup_percentage=0&#10;write_allocator=Null&#10;write_buffers=8&#10;writeback_clean=false">
<path fill="#bab6ae" stroke="#000000" d="M446,-32C446,-32 616,-32 616,-32 622,-32 628,-38 628,-44 628,-44 628,-111 628,-111 628,-117 622,-123 616,-123 616,-123 446,-123 446,-123 440,-123 434,-117 434,-111 434,-111 434,-44 434,-44 434,-38 440,-32 446,-32"/>
<text text-anchor="middle" x="531" y="-107.8" font-family="Arial" font-size="14.00" fill="#000000">dcache </text>
<text text-anchor="middle" x="531" y="-92.8" font-family="Arial" font-size="14.00" fill="#000000">: L1_DCache</text>
</a>
</g>
</g>
<!-- system_system_port -->
<g id="node1" class="node">
<title>system_system_port</title>
<path fill="#b6b8bc" stroke="#000000" d="M425,-493.5C425,-493.5 497,-493.5 497,-493.5 503,-493.5 509,-499.5 509,-505.5 509,-505.5 509,-517.5 509,-517.5 509,-523.5 503,-529.5 497,-529.5 497,-529.5 425,-529.5 425,-529.5 419,-529.5 413,-523.5 413,-517.5 413,-517.5 413,-505.5 413,-505.5 413,-499.5 419,-493.5 425,-493.5"/>
<text text-anchor="middle" x="461" y="-507.8" font-family="Arial" font-size="14.00" fill="#000000">system_port</text>
</g>
<!-- system_membus_slave -->
<g id="node3" class="node">
<title>system_membus_slave</title>
<path fill="#586070" stroke="#000000" d="M446,-362.5C446,-362.5 476,-362.5 476,-362.5 482,-362.5 488,-368.5 488,-374.5 488,-374.5 488,-386.5 488,-386.5 488,-392.5 482,-398.5 476,-398.5 476,-398.5 446,-398.5 446,-398.5 440,-398.5 434,-392.5 434,-386.5 434,-386.5 434,-374.5 434,-374.5 434,-368.5 440,-362.5 446,-362.5"/>
<text text-anchor="middle" x="461" y="-376.8" font-family="Arial" font-size="14.00" fill="#000000">slave</text>
</g>
<!-- system_system_port&#45;&gt;system_membus_slave -->
<g id="edge1" class="edge">
<title>system_system_port&#45;&gt;system_membus_slave</title>
<path fill="none" stroke="#000000" d="M461,-493.285C461,-471.3856 461,-434.3861 461,-408.7663"/>
<polygon fill="#000000" stroke="#000000" points="464.5001,-408.5603 461,-398.5603 457.5001,-408.5603 464.5001,-408.5603"/>
</g>
<!-- system_membus_master -->
<g id="node2" class="node">
<title>system_membus_master</title>
<path fill="#586070" stroke="#000000" d="M366.5,-362.5C366.5,-362.5 403.5,-362.5 403.5,-362.5 409.5,-362.5 415.5,-368.5 415.5,-374.5 415.5,-374.5 415.5,-386.5 415.5,-386.5 415.5,-392.5 409.5,-398.5 403.5,-398.5 403.5,-398.5 366.5,-398.5 366.5,-398.5 360.5,-398.5 354.5,-392.5 354.5,-386.5 354.5,-386.5 354.5,-374.5 354.5,-374.5 354.5,-368.5 360.5,-362.5 366.5,-362.5"/>
<text text-anchor="middle" x="385" y="-376.8" font-family="Arial" font-size="14.00" fill="#000000">master</text>
</g>
<!-- system_mem_ctrls_port -->
<g id="node4" class="node">
<title>system_mem_ctrls_port</title>
<path fill="#4b4746" stroke="#000000" d="M93,-171.5C93,-171.5 123,-171.5 123,-171.5 129,-171.5 135,-177.5 135,-183.5 135,-183.5 135,-195.5 135,-195.5 135,-201.5 129,-207.5 123,-207.5 123,-207.5 93,-207.5 93,-207.5 87,-207.5 81,-201.5 81,-195.5 81,-195.5 81,-183.5 81,-183.5 81,-177.5 87,-171.5 93,-171.5"/>
<text text-anchor="middle" x="108" y="-185.8" font-family="Arial" font-size="14.00" fill="#000000">port</text>
</g>
<!-- system_membus_master&#45;&gt;system_mem_ctrls_port -->
<g id="edge2" class="edge">
<title>system_membus_master&#45;&gt;system_mem_ctrls_port</title>
<path fill="none" stroke="#000000" d="M354.2147,-377.8911C293.7629,-372.4983 164.0827,-359.4941 149,-346 112.7675,-313.5837 106.7879,-253.4558 106.7149,-217.9106"/>
<polygon fill="#000000" stroke="#000000" points="110.217,-217.7736 106.8549,-207.7264 103.2177,-217.6773 110.217,-217.7736"/>
</g>
<!-- system_cpu_icache_mem_side -->
<g id="node7" class="node">
<title>system_cpu_icache_mem_side</title>
<path fill="#94918b" stroke="#000000" d="M193,-40.5C193,-40.5 253,-40.5 253,-40.5 259,-40.5 265,-46.5 265,-52.5 265,-52.5 265,-64.5 265,-64.5 265,-70.5 259,-76.5 253,-76.5 253,-76.5 193,-76.5 193,-76.5 187,-76.5 181,-70.5 181,-64.5 181,-64.5 181,-52.5 181,-52.5 181,-46.5 187,-40.5 193,-40.5"/>
<text text-anchor="middle" x="223" y="-54.8" font-family="Arial" font-size="14.00" fill="#000000">mem_side</text>
</g>
<!-- system_membus_slave&#45;&gt;system_cpu_icache_mem_side -->
<g id="edge3" class="edge">
<title>system_membus_slave&#45;&gt;system_cpu_icache_mem_side</title>
<path fill="none" stroke="#000000" d="M432.2043,-357.1376C429.852,-355.9125 427.4392,-354.8421 425,-354 411.1299,-349.2116 171.2173,-356.5316 161,-346 146.2226,-330.7681 155.0223,-175.3629 161,-155 169.8623,-124.8109 191.4023,-95.1276 206.5951,-76.8255"/>
<polygon fill="#000000" stroke="#000000" points="430.5496,-360.2287 440.9036,-362.4747 434.2102,-354.262 430.5496,-360.2287"/>
</g>
<!-- system_cpu_dtb_walker_port -->
<g id="node9" class="node">
<title>system_cpu_dtb_walker_port</title>
<path fill="#7f7c77" stroke="#000000" d="M570,-171.5C570,-171.5 600,-171.5 600,-171.5 606,-171.5 612,-177.5 612,-183.5 612,-183.5 612,-195.5 612,-195.5 612,-201.5 606,-207.5 600,-207.5 600,-207.5 570,-207.5 570,-207.5 564,-207.5 558,-201.5 558,-195.5 558,-195.5 558,-183.5 558,-183.5 558,-177.5 564,-171.5 570,-171.5"/>
<text text-anchor="middle" x="585" y="-185.8" font-family="Arial" font-size="14.00" fill="#000000">port</text>
</g>
<!-- system_membus_slave&#45;&gt;system_cpu_dtb_walker_port -->
<g id="edge6" class="edge">
<title>system_membus_slave&#45;&gt;system_cpu_dtb_walker_port</title>
<path fill="none" stroke="#000000" d="M497.2616,-368.6508C509.0173,-363.3039 521.2642,-355.9091 530,-346 565.9949,-305.1706 578.8193,-239.3266 583.0666,-207.6581"/>
<polygon fill="#000000" stroke="#000000" points="495.8966,-365.4279 488.0156,-372.5089 498.5922,-371.8881 495.8966,-365.4279"/>
</g>
<!-- system_cpu_itb_walker_port -->
<g id="node10" class="node">
<title>system_cpu_itb_walker_port</title>
<path fill="#7f7c77" stroke="#000000" d="M446,-171.5C446,-171.5 476,-171.5 476,-171.5 482,-171.5 488,-177.5 488,-183.5 488,-183.5 488,-195.5 488,-195.5 488,-201.5 482,-207.5 476,-207.5 476,-207.5 446,-207.5 446,-207.5 440,-207.5 434,-201.5 434,-195.5 434,-195.5 434,-183.5 434,-183.5 434,-177.5 440,-171.5 446,-171.5"/>
<text text-anchor="middle" x="461" y="-185.8" font-family="Arial" font-size="14.00" fill="#000000">port</text>
</g>
<!-- system_membus_slave&#45;&gt;system_cpu_itb_walker_port -->
<g id="edge5" class="edge">
<title>system_membus_slave&#45;&gt;system_cpu_itb_walker_port</title>
<path fill="none" stroke="#000000" d="M461,-352.09C461,-312.3133 461,-241.1585 461,-207.7584"/>
<polygon fill="#000000" stroke="#000000" points="457.5001,-352.1861 461,-362.1861 464.5001,-352.1862 457.5001,-352.1861"/>
</g>
<!-- system_cpu_dcache_mem_side -->
<g id="node11" class="node">
<title>system_cpu_dcache_mem_side</title>
<path fill="#94918b" stroke="#000000" d="M548,-40.5C548,-40.5 608,-40.5 608,-40.5 614,-40.5 620,-46.5 620,-52.5 620,-52.5 620,-64.5 620,-64.5 620,-70.5 614,-76.5 608,-76.5 608,-76.5 548,-76.5 548,-76.5 542,-76.5 536,-70.5 536,-64.5 536,-64.5 536,-52.5 536,-52.5 536,-46.5 542,-40.5 548,-40.5"/>
<text text-anchor="middle" x="578" y="-54.8" font-family="Arial" font-size="14.00" fill="#000000">mem_side</text>
</g>
<!-- system_membus_slave&#45;&gt;system_cpu_dcache_mem_side -->
<g id="edge4" class="edge">
<title>system_membus_slave&#45;&gt;system_cpu_dcache_mem_side</title>
<path fill="none" stroke="#000000" d="M498.311,-377.3313C558.4091,-371.8462 671.1511,-359.8325 683,-346 738.2247,-281.5302 717.1314,-232.725 683,-155 667.9684,-120.7697 634.1383,-93.3466 608.9157,-76.6096"/>
<polygon fill="#000000" stroke="#000000" points="497.736,-373.8687 488.0884,-378.2477 498.361,-380.8408 497.736,-373.8687"/>
</g>
<!-- system_cpu_icache_port -->
<g id="node5" class="node">
<title>system_cpu_icache_port</title>
<path fill="#959ead" stroke="#000000" d="M185,-171.5C185,-171.5 253,-171.5 253,-171.5 259,-171.5 265,-177.5 265,-183.5 265,-183.5 265,-195.5 265,-195.5 265,-201.5 259,-207.5 253,-207.5 253,-207.5 185,-207.5 185,-207.5 179,-207.5 173,-201.5 173,-195.5 173,-195.5 173,-183.5 173,-183.5 173,-177.5 179,-171.5 185,-171.5"/>
<text text-anchor="middle" x="219" y="-185.8" font-family="Arial" font-size="14.00" fill="#000000">icache_port</text>
</g>
<!-- system_cpu_icache_cpu_side -->
<g id="node8" class="node">
<title>system_cpu_icache_cpu_side</title>
<path fill="#94918b" stroke="#000000" d="M295,-40.5C295,-40.5 347,-40.5 347,-40.5 353,-40.5 359,-46.5 359,-52.5 359,-52.5 359,-64.5 359,-64.5 359,-70.5 353,-76.5 347,-76.5 347,-76.5 295,-76.5 295,-76.5 289,-76.5 283,-70.5 283,-64.5 283,-64.5 283,-52.5 283,-52.5 283,-46.5 289,-40.5 295,-40.5"/>
<text text-anchor="middle" x="321" y="-54.8" font-family="Arial" font-size="14.00" fill="#000000">cpu_side</text>
</g>
<!-- system_cpu_icache_port&#45;&gt;system_cpu_icache_cpu_side -->
<g id="edge7" class="edge">
<title>system_cpu_icache_port&#45;&gt;system_cpu_icache_cpu_side</title>
<path fill="none" stroke="#000000" d="M234.4801,-171.3982C245.673,-158.1627 261.0417,-139.6837 274,-123 283.6432,-110.5845 293.9708,-96.5044 302.482,-84.674"/>
<polygon fill="#000000" stroke="#000000" points="305.3488,-86.6821 308.3226,-76.5132 299.6564,-82.6081 305.3488,-86.6821"/>
</g>
<!-- system_cpu_dcache_port -->
<g id="node6" class="node">
<title>system_cpu_dcache_port</title>
<path fill="#959ead" stroke="#000000" d="M295,-171.5C295,-171.5 369,-171.5 369,-171.5 375,-171.5 381,-177.5 381,-183.5 381,-183.5 381,-195.5 381,-195.5 381,-201.5 375,-207.5 369,-207.5 369,-207.5 295,-207.5 295,-207.5 289,-207.5 283,-201.5 283,-195.5 283,-195.5 283,-183.5 283,-183.5 283,-177.5 289,-171.5 295,-171.5"/>
<text text-anchor="middle" x="332" y="-185.8" font-family="Arial" font-size="14.00" fill="#000000">dcache_port</text>
</g>
<!-- system_cpu_dcache_cpu_side -->
<g id="node12" class="node">
<title>system_cpu_dcache_cpu_side</title>
<path fill="#94918b" stroke="#000000" d="M454,-40.5C454,-40.5 506,-40.5 506,-40.5 512,-40.5 518,-46.5 518,-52.5 518,-52.5 518,-64.5 518,-64.5 518,-70.5 512,-76.5 506,-76.5 506,-76.5 454,-76.5 454,-76.5 448,-76.5 442,-70.5 442,-64.5 442,-64.5 442,-52.5 442,-52.5 442,-46.5 448,-40.5 454,-40.5"/>
<text text-anchor="middle" x="480" y="-54.8" font-family="Arial" font-size="14.00" fill="#000000">cpu_side</text>
</g>
<!-- system_cpu_dcache_port&#45;&gt;system_cpu_dcache_cpu_side -->
<g id="edge8" class="edge">
<title>system_cpu_dcache_port&#45;&gt;system_cpu_dcache_cpu_side</title>
<path fill="none" stroke="#000000" d="M352.5788,-171.285C378.4246,-148.4079 422.8873,-109.0525 451.8625,-83.4055"/>
<polygon fill="#000000" stroke="#000000" points="454.4277,-85.8091 459.596,-76.5603 449.7882,-80.5674 454.4277,-85.8091"/>
</g>
</g>
</svg>
